<!DOCTYPE svg PUBLIC "-//W3C//DTD SVG 20010904//EN" "http://www.w3.org/TR/2001/REC-SVG-20010904/DTD/svg10.dtd">
<svg version="1.0" xmlns="http://www.w3.org/2000/svg" width="480px" height="640px" viewBox="0 0 4800 6400" preserveAspectRatio="xMidYMid meet">
<g id="layer1" fill="#ffffff" stroke="none">
 <path d="M2422 6384 c-37 -26 -29 -66 33 -159 115 -172 234 -484 235 -611 l0 -31 -247 1 c-157 0 -283 -4 -343 -12 -543 -76 -996 -295 -1377 -665 -338 -329 -552 -700 -664 -1152 -46 -186 -65 -469 -49 -730 21 -350 84 -585 244 -905 416 -831 1076 -1542 1883 -2028 155 -94 205 -108 250 -70 22 18 14 67 -17 113 -46 67 -104 190 -145 305 -33 97 -95 331 -95 362 0 11 46 14 248 14 333 1 524 31 817 131 689 235 1258 809 1488 1503 67 200 93 341 107 575 14 245 -4 532 -44 708 -106 460 -440 1052 -881 1562 -143 165 -423 440 -586 575 -293 244 -731 530 -811 530 -13 0 -34 -7 -46 -16z m227 -2293 c393 -115 657 -443 678 -841 20 -378 -191 -728 -532 -886 -141 -65 -211 -79 -395 -79 -184 0 -254 14 -395 79 -565 261 -713 997 -292 1462 119 131 305 236 492 278 104 23 344 16 444 -13z"/>
 </g>

</svg>